<?xml version="1.0" standalone="no"?>
<!DOCTYPE svg PUBLIC "-//W3C//DTD SVG 20010904//EN"
 "http://www.w3.org/TR/2001/REC-SVG-20010904/DTD/svg10.dtd">
<svg version="1.0" xmlns="http://www.w3.org/2000/svg"
 width="820.000000pt" height="490.000000pt" viewBox="0 0 820.000000 490.000000"
 preserveAspectRatio="xMidYMid meet">

<g transform="translate(0.000000,490.000000) scale(0.100000,-0.100000)"
fill="#000000" stroke="none">
<path d="M0 3845 l0 -1054 41 -12 c86 -26 88 -97 2 -85 l-43 6 0 -1350 0
-1350 2060 0 2061 0 50 40 c50 39 128 70 178 70 80 0 149 -34 137 -66 -3 -8
-3 -21 0 -29 5 -13 221 -15 1860 -15 l1854 0 0 2450 0 2450 -1030 0 -1030 0
-72 -31 c-40 -17 -81 -35 -90 -40 -10 -5 -25 -9 -33 -9 -9 0 -18 -6 -21 -14
-3 -8 -15 -11 -30 -8 -14 2 -24 0 -24 -7 0 -7 -20 -21 -45 -32 -24 -11 -47
-24 -50 -29 -3 -5 -12 -7 -19 -4 -8 3 -22 -3 -32 -14 -12 -12 -40 -23 -71 -27
-29 -4 -53 -11 -53 -16 0 -5 -26 -9 -57 -9 -32 -1 -69 -7 -83 -15 -14 -8 -42
-14 -63 -15 -21 0 -50 -6 -65 -14 -24 -13 -113 -25 -199 -28 -18 -1 -33 -5
-33 -10 0 -4 -9 -8 -19 -8 -11 0 -22 -4 -26 -10 -3 -5 -12 -7 -20 -3 -9 3 -21
1 -28 -4 -6 -5 -38 -18 -69 -28 -32 -11 -58 -23 -58 -27 0 -11 -72 -41 -135
-57 -27 -7 -54 -16 -60 -21 -13 -10 -165 -46 -232 -55 -29 -4 -53 -11 -53 -16
0 -5 -15 -9 -32 -9 -18 0 -76 -9 -128 -20 -52 -11 -126 -25 -165 -30 -38 -6
-72 -14 -75 -19 -3 -5 -25 -11 -50 -13 -25 -3 -58 -11 -75 -18 -16 -7 -39 -16
-50 -20 -11 -5 -27 -11 -35 -14 -8 -4 -35 -17 -59 -31 -24 -14 -50 -25 -57
-25 -7 0 -19 -7 -28 -15 -21 -21 -91 -35 -229 -45 -65 -4 -124 -13 -130 -19
-6 -6 -20 -11 -32 -11 -11 0 -39 -7 -63 -15 -40 -14 -124 -30 -217 -40 -87
-10 -119 -16 -130 -24 -5 -5 -26 -11 -45 -14 -81 -11 -155 -30 -177 -44 -12
-8 -23 -12 -23 -9 0 3 -27 -7 -60 -24 -33 -17 -60 -35 -60 -40 0 -6 -178 -10
-502 -9 -455 1 -496 2 -428 14 52 10 80 20 91 34 9 11 36 25 60 31 24 5 62 16
84 24 22 9 69 16 105 17 36 1 57 3 48 6 -28 7 -21 23 9 23 14 0 45 11 68 24
23 14 50 25 61 25 52 0 119 20 135 40 13 16 28 21 68 21 27 0 53 5 56 10 3 6
15 10 25 10 11 0 34 9 52 20 18 11 41 20 50 20 10 0 32 6 50 14 57 23 202 67
224 66 11 0 24 4 30 9 5 5 59 22 119 36 61 15 118 34 127 42 11 10 45 18 89
21 42 3 65 8 58 13 -19 11 -5 15 166 46 50 9 92 19 95 23 9 13 82 40 109 40
14 0 35 7 45 15 10 8 23 12 28 9 5 -3 14 -1 21 4 7 5 32 13 57 17 48 7 159 36
254 66 32 10 62 16 66 14 5 -3 10 0 12 5 2 6 34 15 73 21 38 5 82 16 98 24 17
8 44 15 61 15 18 0 49 9 71 20 22 11 55 20 74 20 34 0 89 14 123 31 10 5 32 9
48 9 17 0 29 4 26 9 -5 8 80 32 169 47 22 4 43 11 46 16 3 4 41 15 85 23 43 8
92 20 107 26 28 12 48 15 100 18 15 0 27 6 27 11 0 7 -860 10 -2560 10 l-2560
0 0 -1055z m4031 103 c22 -6 39 -15 39 -20 0 -4 6 -8 14 -8 16 0 26 -21 26
-56 0 -24 -1 -24 -103 -24 -127 0 -145 9 -128 62 17 51 77 69 152 46z m-3151
-388 l0 -60 -60 0 c-56 0 -61 2 -70 26 -13 34 0 50 51 66 22 6 39 15 39 20 0
4 9 8 20 8 18 0 20 -7 20 -60z m3849 -574 c9 -11 1 -25 -40 -70 l-51 -56 29 0
29 0 82 -367 c87 -390 88 -393 32 -393 -26 0 -28 4 -44 80 l-18 80 -101 0
-102 0 -18 -80 c-18 -78 -19 -80 -48 -80 -17 0 -32 6 -35 15 -3 8 29 171 71
362 42 191 78 367 79 390 4 80 98 163 135 119z m-3201 -503 c2 -365 2 -372
-18 -378 -11 -3 -29 -3 -40 0 -20 6 -20 15 -20 374 0 202 3 371 7 375 4 4 21
6 38 4 l30 -3 3 -372z m367 119 l90 -253 5 253 5 253 35 0 35 0 3 -372 2 -373
-24 -6 c-54 -13 -55 -11 -155 273 l-96 272 -5 -266 c-4 -239 -7 -267 -22 -277
-13 -8 -23 -8 -35 0 -17 10 -18 41 -21 370 -1 197 0 365 3 372 3 9 19 12 47
10 l43 -3 90 -253z m660 218 l0 -35 -112 -3 -113 -3 0 -134 0 -135 83 0 c45 0
88 -4 95 -9 8 -5 12 -21 10 -37 l-3 -29 -92 -3 -93 -3 0 -159 c0 -150 -1 -159
-20 -165 -11 -3 -29 -3 -40 0 -20 6 -20 15 -20 374 0 202 3 371 7 375 4 3 72
5 152 4 l146 -3 0 -35z m446 17 c19 -12 44 -42 57 -67 22 -44 23 -51 20 -300
-3 -236 -5 -258 -24 -290 -32 -55 -87 -81 -161 -77 -75 4 -108 24 -140 87 -22
42 -23 55 -23 291 0 151 4 259 11 276 12 33 56 82 84 93 11 5 47 9 81 9 47 1
69 -4 95 -22z m525 -3 c51 -38 66 -68 72 -142 7 -101 -4 -157 -39 -196 -24
-28 -26 -35 -14 -40 35 -13 53 -85 57 -221 l3 -130 -33 -3 c-43 -4 -52 21 -52
144 0 151 -26 184 -142 184 l-38 0 0 -160 0 -160 -25 -6 c-57 -14 -55 -27 -55
374 0 203 3 372 8 376 4 4 57 6 119 4 94 -3 116 -6 139 -24z m366 14 c2 -7 33
-135 69 -285 35 -149 66 -269 69 -267 2 3 34 130 70 282 l66 277 28 3 c16 2
39 1 52 -2 l24 -6 0 -364 c0 -392 0 -392 -52 -384 l-23 3 -5 250 -5 250 -39
-160 c-21 -88 -48 -199 -59 -247 l-21 -88 -38 0 c-33 0 -39 4 -45 28 -3 15
-30 122 -59 237 l-52 210 -1 -231 c-1 -249 -3 -259 -53 -252 l-23 3 -3 365
c-1 201 0 371 3 377 6 17 91 17 97 1z m1494 -13 c10 -41 -10 -55 -82 -55 l-64
0 0 -329 c0 -354 0 -357 -52 -349 l-23 3 -3 337 -2 337 -73 3 c-67 3 -72 5
-75 26 -8 51 -6 52 187 52 l181 0 6 -25z m242 -344 c2 -389 2 -395 -47 -389
l-26 3 -3 365 c-1 201 0 371 3 378 3 8 17 12 37 10 l33 -3 3 -364z m448 349
c50 -32 76 -94 72 -177 -3 -67 -4 -68 -32 -71 -37 -5 -46 10 -46 81 0 51 -4
62 -29 88 -37 36 -79 38 -118 5 l-28 -24 0 -262 0 -262 24 -19 c34 -28 96 -25
126 6 22 21 25 33 25 98 0 81 11 101 52 95 22 -3 23 -8 26 -82 3 -84 -7 -125
-42 -165 -48 -54 -157 -69 -216 -28 -75 51 -75 49 -78 340 -3 299 2 328 66
372 49 33 148 35 198 5z m507 -2 c63 -268 157 -713 153 -724 -4 -10 -16 -14
-38 -12 -34 3 -32 0 -62 131 l-6 27 -100 0 -99 0 -10 -37 c-6 -21 -14 -56 -19
-78 -7 -35 -11 -40 -39 -43 -21 -2 -32 2 -37 13 -3 9 30 178 74 376 44 199 80
363 80 365 0 2 22 4 49 4 42 0 50 -3 54 -22z m-2427 -1717 c-8 -12 -107 -43
-114 -36 -11 11 34 40 72 45 46 7 51 6 42 -9z m214 -1 c12 -23 10 -61 -4 -71
-27 -20 -82 35 -71 71 9 28 60 27 75 0z m-730 -145 l24 -26 -29 -24 c-33 -27
-79 -32 -120 -13 -32 15 -32 41 1 67 38 30 94 28 124 -4z m2266 -317 c8 -25
-18 -62 -75 -105 -34 -27 -52 -33 -90 -33 -58 0 -91 21 -91 58 1 69 84 112
201 104 38 -3 50 -8 55 -24z m-4779 -33 c-4 -8 -2 -17 4 -20 5 -4 7 -11 4 -16
-4 -5 -12 -4 -19 3 -10 10 -11 17 -2 30 13 22 20 23 13 3z m59 -40 c9 -8 11
-15 6 -15 -5 0 -15 7 -22 15 -7 8 -9 15 -6 15 4 0 14 -7 22 -15z m4214 -20 c0
-8 -2 -15 -4 -15 -2 0 -6 7 -10 15 -3 8 -1 15 4 15 6 0 10 -7 10 -15z m-3296
-131 c9 -3 14 -10 11 -14 -3 -5 -1 -11 5 -15 16 -10 11 -44 -10 -65 -33 -33
-110 -25 -110 11 0 10 -4 19 -10 19 -5 0 -10 7 -10 15 0 8 5 15 10 15 6 0 10
6 10 14 0 9 13 16 33 19 17 2 37 5 44 5 6 1 18 -1 27 -4z m1223 -129 c12 -8
28 -13 35 -10 8 3 25 -3 39 -14 13 -12 29 -25 35 -30 6 -5 20 -12 33 -16 17
-5 21 -13 19 -41 -2 -28 -6 -34 -25 -34 -13 0 -23 5 -23 12 0 9 -3 9 -12 0 -8
-8 -17 -8 -30 -1 -11 6 -22 8 -25 6 -5 -6 -87 35 -115 57 -25 18 -22 52 4 70
28 20 38 20 65 1z m1576 -73 c22 -20 21 -31 -7 -64 -31 -35 -81 -55 -155 -64
-52 -6 -61 -4 -80 15 -27 27 -27 37 7 67 38 36 77 55 131 63 54 8 79 4 104
-17z"/>
<path d="M4616 2577 c-16 -67 -34 -148 -41 -179 l-13 -58 84 0 c46 0 84 2 84
4 0 8 -81 350 -84 353 -1 2 -15 -52 -30 -120z"/>
<path d="M2860 2777 c-46 -23 -50 -46 -50 -295 0 -187 3 -239 15 -262 26 -50
101 -58 144 -15 l26 25 3 234 c2 191 0 241 -12 270 -21 51 -74 69 -126 43z"/>
<path d="M3340 2639 l0 -142 60 6 c100 9 120 34 120 147 0 58 -16 107 -40 120
-10 6 -46 10 -79 10 l-61 0 0 -141z"/>
<path d="M6487 2527 c-21 -95 -38 -175 -37 -179 0 -5 36 -8 80 -8 44 0 80 3
80 8 0 14 -73 327 -79 339 -3 6 -23 -66 -44 -160z"/>
</g>
</svg>
